<svg width="129" height="187" viewBox="0 0 129 187" fill="none" xmlns="http://www.w3.org/2000/svg">
<path fill-rule="evenodd" clip-rule="evenodd" d="M64.5 0C100.122 0 129 28.8776 129 64.5V140.944C129 166.012 108.679 186.333 83.611 186.333C58.544 186.333 38.222 166.012 38.222 140.944V63.135C38.222 48.622 49.987 36.8571 64.5 36.8571C79.013 36.8571 90.778 48.622 90.778 63.135V138.214C90.778 142.172 87.569 145.381 83.611 145.381C79.653 145.381 76.444 142.172 76.444 138.214V63.135C76.444 56.538 71.097 51.19 64.5 51.19C57.903 51.19 52.556 56.538 52.556 63.135V140.944C52.556 158.096 66.46 172 83.611 172C100.763 172 114.667 158.096 114.667 140.944V64.5C114.667 36.7937 92.206 14.3333 64.5 14.3333C36.794 14.3333 14.3333 36.7937 14.3333 64.5V138.214C14.3333 142.172 11.1247 145.381 7.1667 145.381C3.2086 145.381 0 142.172 0 138.214V64.5C0 28.8776 28.878 0 64.5 0Z" fill="black"/>
</svg>
