<svg width="20" height="20" viewBox="0 0 20 20" fill="none" xmlns="http://www.w3.org/2000/svg">
<path fill-rule="evenodd" clip-rule="evenodd" d="M18.9151 0.833634C19.1077 1.02623 19.1807 1.30811 19.1059 1.57L18.3886 4.08045C16.9708 9.04275 15.0496 13.8472 12.6549 18.4188L12.3316 19.0361C12.2209 19.2474 12.0162 19.3935 11.7804 19.4295C11.5445 19.4655 11.3056 19.3871 11.1369 19.2184L7.07102 15.1525C6.79452 14.8761 6.77685 14.4335 7.03041 14.1359L7.1783 13.9623C8.5779 12.3192 9.85472 10.5769 10.9989 8.74933C9.14577 9.90965 7.3802 11.2063 5.71702 12.6291L5.61402 12.7173C5.31643 12.9718 4.87306 12.9546 4.59614 12.6777L0.53028 8.61181C0.361572 8.4431 0.2832 8.20419 0.319194 7.96833C0.355189 7.73247 0.501255 7.52781 0.712604 7.41711L1.32985 7.09379C5.90152 4.6991 10.7059 2.77789 15.6683 1.36009L18.1787 0.642821C18.4406 0.567994 18.7225 0.641035 18.9151 0.833634ZM17.2927 2.45598L16.0803 2.80237C11.32 4.16247 6.7079 5.99519 2.31281 8.27302L5.16859 11.1288C7.42734 9.24379 9.86299 7.58075 12.4418 6.16303L12.7201 6.01003C13.0127 5.84918 13.3764 5.90112 13.6123 6.13745C13.8481 6.37378 13.8994 6.73757 13.738 7.02986L13.5414 7.38569C12.1334 9.93522 10.4852 12.3442 8.6196 14.5798L11.4757 17.4359C13.7535 13.0408 15.5862 8.4287 16.9463 3.66837L17.2927 2.45598Z" fill="black"/>
</svg>
